#!OML:ASF H:\ManfredETheater\Project 1\Capture day 1\Session 1\subject.ASF
:FULLY-SPECIFIED
:DEGREES
155
root -5.97321 14.6857 -23.0871 -192.899 -28.4402 188.82
lowerback 21.9357 4.48464 5.53412
upperback 2.79903 7.08614 4.33047
thorax -9.02209 3.00927 -0.396634
lowerneck -14.8115 -5.98005 -6.08299
upperneck 3.71826 -7.18778 3.36686
head 3.81096 -3.51316 1.44757
rclavicle 9.49694e-014 -5.725e-014
rhumerus -15.8209 34.3523 -88.6205
rradius 77.4054
rwrist 5.56827
rhand -16.6431 9.28709
rfingers 7.12502
rthumb 9.57967 -20.4751
lclavicle 9.49694e-014 -5.725e-014
lhumerus -50.2581 -10.7205 105.338
lradius 88.7967
lwrist 19.2208
lhand -20.6674 -11.5244
lfingers 7.12502
lthumb 5.69548 18.379
rfemur -27.2896 -5.93468 27.8512
rtibia 86.1519
rfoot -33.3888 -2.90457
rtoes -31.1449
lfemur -54.4972 -8.69547 -8.51094
ltibia 44.9946
lfoot -2.99574 -3.28634
ltoes -13.5357
156
root -6.13133 14.6502 -23.3623 -193.095 -27.9899 188.644
lowerback 21.7458 4.46524 5.41318
upperback 2.79969 7.01981 4.29556
thorax -8.93171 2.98865 -0.336017
lowerneck -14.7629 -5.87484 -5.98509
upperneck 4.03669 -7.05673 3.26388
head 3.88883 -3.44956 1.40866
rclavicle -3.43897e-014 -2.70347e-014
rhumerus -16.5324 35.9853 -91.3987
rradius 80.63
rwrist 6.3348
rhand -16.9874 9.72909
rfingers 7.12502
rthumb 9.24753 -20.0481
lclavicle -3.43897e-014 -2.70347e-014
lhumerus -50.8105 -12.354 106.317
lradius 90.036
lwrist 18.6735
lhand -19.5606 -10.9978
lfingers 7.12502
lthumb 6.76397 18.8742
rfemur -26.4957 -6.09295 27.3979
rtibia 87.5732
rfoot -32.501 -1.6171
rtoes -31.8255
lfemur -53.9484 -8.62176 -8.69682
ltibia 45.4194
lfoot -0.122512 -3.55237
ltoes -14.0398
157
root -6.28782 14.6161 -23.6336 -193.309 -27.6731 188.426
lowerback 21.6245 4.39319 5.24178
upperback 2.76193 6.88419 4.24194
thorax -8.92675 2.93459 -0.255501
lowerneck -14.6935 -5.76184 -5.86336
upperneck 4.3863 -6.92348 3.1984
head 3.97399 -3.38233 1.37789
rclavicle -8.20484e-014 6.87795e-014
rhumerus -17.4615 37.388 -94.1749
rradius 83.6399
rwrist 6.99931
rhand -17.5194 10.0742
rfingers 7.12502
rthumb 8.7341 -19.725
lclavicle -8.20484e-014 6.87795e-014
lhumerus -51.2787 -13.7979 107.103
lradius 91.1253
lwrist 17.6434
lhand -18.4746 -10.6476
lfingers 7.12502
lthumb 7.81232 19.1881
rfemur -25.7166 -6.22077 26.7964
rtibia 88.9464
rfoot -31.3703 -0.045666
rtoes -32.1393
lfemur -53.5629 -8.36793 -9.13853
ltibia 46.3937
lfoot 2.95589 -4.25977
ltoes -14.1295
158
root -6.44112 14.5859 -23.9003 -193.51 -27.5007 188.17
lowerback 21.55 4.27459 5.01169
upperback 2.69086 6.68301 4.17456
thorax -8.99048 2.8502 -0.144009
lowerneck -14.6093 -5.64815 -5.7344
upperneck 4.73433 -6.79435 3.16349
head 4.05766 -3.31549 1.3555
rclavicle 1.02076e-013 1.11319e-014
rhumerus -18.5961 38.572 -96.8977
rradius 86.4758
rwrist 7.55053
rhand -18.2011 10.365
rfingers 7.12502
rthumb 8.07628 -19.4607
lclavicle 1.02076e-013 1.11319e-014
lhumerus -51.6198 -15.0648 107.705
lradius 92.0406
lwrist 16.1733
lhand -17.4533 -10.5037
lfingers 7.12502
lthumb 8.7979 19.2929
rfemur -24.9776 -6.30692 26.0725
rtibia 90.2357
rfoot -29.9951 1.7752
rtoes -32.0102
lfemur -53.3841 -8.02543 -9.75285
ltibia 47.8301
lfoot 5.80646 -5.26796
ltoes -13.8219
159
root -6.59067 14.5598 -24.1616 -193.679 -27.4677 187.887
lowerback 21.4906 4.11696 4.7363
upperback 2.59848 6.4247 4.09785
thorax -9.09012 2.74036 -0.00310115
lowerneck -14.5262 -5.53727 -5.61062
upperneck 5.05806 -6.67087 3.15383
head 4.1355 -3.25043 1.34156
rclavicle -6.70898e-014 -2.14687e-014
rhumerus -19.9124 39.53 -99.5114
rradius 89.1682
rwrist 8.0305
rhand -18.9851 10.6502
rfingers 7.12502
rthumb 7.31957 -19.2032
lclavicle -6.70898e-014 -2.14687e-014
lhumerus -51.792 -16.1756 108.131
lradius 92.7619
lwrist 14.3732
lhand -16.6027 -10.5864
lfingers 7.12502
lthumb 9.6187 19.174
rfemur -24.3081 -6.34786 25.2644
rtibia 91.4201
rfoot -28.379 3.79989
rtoes -31.3721
lfemur -53.4222 -7.6811 -10.458
ltibia 49.6509
lfoot 8.03171 -6.39165
ltoes -13.0766
160
root -6.73661 14.5373 -24.4171 -193.824 -27.539 187.625
lowerback 21.423 3.92889 4.46798
upperback 2.50197 6.12794 4.02611
thorax -9.18854 2.6126 0.151259
lowerneck -14.4542 -5.43503 -5.50333
upperneck 5.3366 -6.558 3.16483
head 4.20289 -3.19013 1.33602
rclavicle 8.11787e-014 1.39149e-014
rhumerus -21.3723 40.2844 -101.947
rradius 91.7331
rwrist 8.44283
rhand -19.855 10.938
rfingers 7.12502
rthumb 6.47975 -18.9429
lclavicle 8.11787e-014 1.39149e-014
lhumerus -51.7479 -17.1312 108.387
lradius 93.2663
lwrist 12.3718
lhand -15.9244 -10.878
lfingers 7.12502
lthumb 10.2731 18.8511
rfemur -23.7179 -6.32793 24.4537
rtibia 92.4878
rfoot -26.5211 5.95009
rtoes -30.1219
lfemur -53.6274 -7.36944 -11.1735
ltibia 51.7755
lfoot 9.312 -7.38703
ltoes -11.798
161
root -6.88026 14.5201 -24.6662 -194.008 -27.6233 187.444
lowerback 21.3592 3.73077 4.29676
upperback 2.42733 5.83601 3.97645
thorax -9.25463 2.48309 0.275637
lowerneck -14.4141 -5.34664 -5.41738
upperneck 5.57539 -6.45976 3.18611
head 4.26468 -3.1371 1.33552
rclavicle 3.57564e-014 -2.06736e-014
rhumerus -22.9251 40.8404 -104.134
rradius 94.1661
rwrist 8.76913
rhand -20.7635 11.2618
rfingers 7.12502
rthumb 5.6027 -18.6441
lclavicle 3.57564e-014 -2.06736e-014
lhumerus -51.492 -17.9551 108.479
lradius 93.5617
lwrist 10.3107
lhand -15.4849 -11.2935
lfingers 7.12502
lthumb 10.697 18.4142
rfemur -23.1626 -6.19297 23.7465
rtibia 93.4168
rfoot -24.4012 8.12204
rtoes -28.2556
lfemur -53.8888 -7.08224 -11.7995
ltibia 54.1004
lfoot 9.5606 -8.16696
ltoes -10.3647
162
root -7.02179 14.5058 -24.909 -194.244 -27.6657 187.376
lowerback 21.2846 3.53412 4.25989
upperback 2.38542 5.57006 3.95367
thorax -9.26609 2.36029 0.349103
lowerneck -14.4247 -5.27057 -5.35655
upperneck 5.79676 -6.3736 3.22935
head 4.33119 -3.08917 1.34378
rclavicle -4.04775e-014 -2.46493e-014
rhumerus -24.5153 41.2128 -106.025
rradius 96.4414
rwrist 8.97072
rhand -21.6805 11.6298
rfingers 7.12502
rthumb 4.71732 -18.2977
lclavicle -4.04775e-014 -2.46493e-014
lhumerus -51.0239 -18.6344 108.405
lradius 93.6346
lwrist 8.31145
lhand -15.2626 -11.7549
lfingers 7.12502
lthumb 10.9115 17.9416
rfemur -22.656 -5.92926 23.2078
rtibia 94.2226
rfoot -22.0102 10.2105
rtoes -25.8109
lfemur -54.0872 -6.79766 -12.2933
ltibia 56.5057
lfoot 8.77636 -8.87489
ltoes -9.34882
163
root -7.16316 14.5004 -25.1445 -194.514 -27.6006 187.367
lowerback 21.1737 3.36357 4.335
upperback 2.3872 5.35415 3.9462
thorax -9.19889 2.25703 0.365538
lowerneck -14.4862 -5.20668 -5.31421
upperneck 6.01439 -6.29965 3.28415
head 4.40613 -3.04668 1.35645
rclavicle 1.05604e-013 -2.70347e-014
rhumerus -26.0974 41.425 -107.582
rradius 98.517
rwrist 9.00939
rhand -22.6053 12.0431
rfingers 7.12502
rthumb 3.82429 -17.9024
lclavicle 1.05604e-013 -2.70347e-014
lhumerus -50.3492 -19.145 108.168
lradius 93.4743
lwrist 6.50419
lhand -15.2339 -12.188
lfingers 7.12502
lthumb 10.9391 17.507
rfemur -22.1852 -5.51497 22.8013
rtibia 94.894
rfoot -19.3193 12.1392
rtoes -22.7963
lfemur -54.1417 -6.49357 -12.6739
ltibia 58.8562
lfoot 7.33167 -9.27578
ltoes -8.07037
164
root -7.30385 14.5055 -25.3707 -194.835 -27.4219 187.425
lowerback 21.0806 3.20951 4.54241
upperback 2.41466 5.18476 3.94801
thorax -9.10114 2.16945 0.304394
lowerneck -14.5963 -5.14788 -5.27234
upperneck 6.25671 -6.23134 3.34262
head 4.4969 -3.00622 1.36862
rclavicle -7.69048e-014 -4.29375e-014
rhumerus -27.6352 41.4888 -108.796
rradius 100.345
rwrist 8.80807
rhand -23.4804 12.5133
rfingers 7.12502
rthumb 2.97914 -17.4456
lclavicle -7.69048e-014 -4.29375e-014
lhumerus -49.5016 -19.4586 107.771
lradius 93.0764
lwrist 4.94659
lhand -15.3289 -12.5222
lfingers 7.12502
lthumb 10.8475 17.1777
rfemur -21.7461 -5.00306 22.539
rtibia 95.4443
rfoot -16.3079 13.8064
rtoes -19.3778
lfemur -54.0041 -6.18411 -12.9236
ltibia 61.027
lfoot 5.65935 -9.56922
ltoes -7.11096
165
root -7.44369 14.5223 -25.5878 -195.12 -27.1259 187.453
lowerback 20.9561 3.08742 4.77118
upperback 2.45699 5.05673 3.94129
thorax -8.96722 2.10153 0.211787
lowerneck -14.7487 -5.0878 -5.23205
upperneck 6.53813 -6.16113 3.41029
head 4.60697 -2.96365 1.38293
rclavicle -3.8266e-014 -7.15625e-014
rhumerus -29.089 41.4206 -109.661
rradius 101.876
rwrist 8.35638
rhand -24.2622 13.0216
rfingers 7.12502
rthumb 2.2241 -16.9466
lclavicle -3.8266e-014 -7.15625e-014
lhumerus -48.5207 -19.5459 107.23
lradius 92.4586
lwrist 3.69175
lhand -15.5173 -12.7401
lfingers 7.12502
lthumb 10.6658 16.9692
rfemur -21.4024 -4.42127 22.3226
rtibia 95.9098
rfoot -12.9453 15.1601
rtoes -15.6947
lfemur -53.6735 -5.86657 -13.117
ltibia 62.9201
lfoot 3.93164 -9.71018
ltoes -6.62888
166
root -7.58201 14.5514 -25.7954 -195.32 -26.7681 187.369
lowerback 20.8247 2.98983 4.93698
upperback 2.4848 4.94763 3.90131
thorax -8.8487 2.04586 0.112255
lowerneck -14.9201 -5.02218 -5.18917
upperneck 6.87404 -6.08536 3.48427
head 4.73713 -2.91722 1.3986
rclavicle -1.10624e-013 -3.18055e-015
rhumerus -30.4534 41.2151 -110.198
rradius 103.074
rwrist 7.64506
rhand -24.9032 13.5314
rfingers 7.12502
rthumb 1.6051 -16.4423
lclavicle -1.10624e-013 -3.18055e-015
lhumerus -47.4866 -19.3965 106.578
lradius 91.667
lwrist 2.75167
lhand -15.7846 -12.7646
lfingers 7.12502
lthumb 10.4079 16.9578
rfemur -21.1833 -3.85532 22.0338
rtibia 96.3271
rfoot -9.2333 16.1546
rtoes -11.9861
lfemur -53.1649 -5.56743 -13.3579
ltibia 64.4842
lfoot 2.35402 -9.6068
ltoes -6.29564
